<svg xmlns="http://www.w3.org/2000/svg" xmlns:xlink="http://www.w3.org/1999/xlink" width="1024" zoomAndPan="magnify" viewBox="0 0 768 767.999994" height="1024" preserveAspectRatio="xMidYMid meet" version="1.2"><defs><clipPath id="2399d833d7"><path d="M 331.03125 265.171875 L 618.925781 265.171875 L 618.925781 520.023438 L 331.03125 520.023438 Z M 331.03125 265.171875 "/></clipPath><clipPath id="eb7acb021c"><path d="M 273.734375 200.035156 L 676.484375 200.035156 L 676.484375 389 L 273.734375 389 Z M 273.734375 200.035156 "/></clipPath><clipPath id="580db16d92"><path d="M 133.914062 320.460938 L 457 320.460938 L 457 648.960938 L 133.914062 648.960938 Z M 133.914062 320.460938 "/></clipPath><clipPath id="acced79e8c"><path d="M 338 258 L 645 258 L 645 566 L 338 566 Z M 338 258 "/></clipPath><clipPath id="710b54100c"><path d="M 482.746094 258.941406 L 644.816406 401.726562 L 500.046875 566.050781 L 337.972656 423.261719 Z M 482.746094 258.941406 "/></clipPath><clipPath id="cd578cbdd3"><path d="M 482.746094 258.941406 L 644.816406 401.726562 L 500.046875 566.050781 L 337.972656 423.261719 Z M 482.746094 258.941406 "/></clipPath><clipPath id="77dfe3d090"><path d="M 455.242188 360.023438 L 767.992188 360.023438 L 767.992188 668 L 455.242188 668 Z M 455.242188 360.023438 "/></clipPath><clipPath id="ae8972b223"><path d="M 305 258 L 612 258 L 612 564 L 305 564 Z M 305 258 "/></clipPath><clipPath id="bed91d3375"><path d="M 476.734375 258.9375 L 611.65625 427.617188 L 440.636719 564.414062 L 305.714844 395.734375 Z M 476.734375 258.9375 "/></clipPath><clipPath id="6d1857a214"><path d="M 476.734375 258.9375 L 611.65625 427.617188 L 440.636719 564.414062 L 305.714844 395.734375 Z M 476.734375 258.9375 "/></clipPath><clipPath id="65abf0c4c2"><path d="M 458.640625 277.339844 L 474 277.339844 L 474 293 L 458.640625 293 Z M 458.640625 277.339844 "/></clipPath><clipPath id="fab86fdef6"><path d="M 458.640625 279.589844 L 458.640625 290.699219 C 458.640625 291.941406 459.648438 292.949219 460.890625 292.949219 L 471.777344 292.949219 C 473.019531 292.949219 474.027344 291.941406 474.027344 290.699219 L 474.027344 279.589844 C 474.027344 278.34375 473.019531 277.339844 471.777344 277.339844 L 460.890625 277.339844 C 459.648438 277.339844 458.640625 278.34375 458.640625 279.589844 Z M 458.640625 279.589844 "/></clipPath><clipPath id="42ea0d003a"><path d="M 475.941406 277.339844 L 491.691406 277.339844 L 491.691406 293 L 475.941406 293 Z M 475.941406 277.339844 "/></clipPath><clipPath id="0189cf55a4"><path d="M 475.941406 279.589844 L 475.941406 290.699219 C 475.941406 291.941406 476.949219 292.949219 478.191406 292.949219 L 489.074219 292.949219 C 490.316406 292.949219 491.324219 291.941406 491.324219 290.699219 L 491.324219 279.589844 C 491.324219 278.34375 490.316406 277.339844 489.074219 277.339844 L 478.191406 277.339844 C 476.949219 277.339844 475.941406 278.34375 475.941406 279.589844 Z M 475.941406 279.589844 "/></clipPath><clipPath id="94e13c0bf3"><path d="M 458.640625 294.886719 L 474 294.886719 L 474 310.636719 L 458.640625 310.636719 Z M 458.640625 294.886719 "/></clipPath><clipPath id="6e7af82cb1"><path d="M 458.640625 297.136719 L 458.640625 308.25 C 458.640625 309.492188 459.648438 310.5 460.890625 310.5 L 471.777344 310.5 C 473.019531 310.5 474.027344 309.492188 474.027344 308.25 L 474.027344 297.136719 C 474.027344 295.894531 473.019531 294.886719 471.777344 294.886719 L 460.890625 294.886719 C 459.648438 294.886719 458.640625 295.894531 458.640625 297.136719 Z M 458.640625 297.136719 "/></clipPath><clipPath id="02f248c836"><path d="M 475.941406 294.886719 L 491.691406 294.886719 L 491.691406 310.636719 L 475.941406 310.636719 Z M 475.941406 294.886719 "/></clipPath><clipPath id="ab2b9532a4"><path d="M 475.941406 297.136719 L 475.941406 308.25 C 475.941406 309.492188 476.949219 310.5 478.191406 310.5 L 489.074219 310.5 C 490.316406 310.5 491.324219 309.492188 491.324219 308.25 L 491.324219 297.136719 C 491.324219 295.894531 490.316406 294.886719 489.074219 294.886719 L 478.191406 294.886719 C 476.949219 294.886719 475.941406 295.894531 475.941406 297.136719 Z M 475.941406 297.136719 "/></clipPath><clipPath id="bd4a6fa2f2"><path d="M 453 99 L 743 99 L 743 365 L 453 365 Z M 453 99 "/></clipPath><clipPath id="2fda9bb7b0"><path d="M 515.222656 99.4375 L 742.253906 292.539062 L 680.796875 364.796875 L 453.765625 171.695312 Z M 515.222656 99.4375 "/></clipPath><clipPath id="773b637189"><path d="M 521.226562 208.023438 L 565.621094 208.023438 L 565.621094 273.921875 L 521.226562 273.921875 Z M 521.226562 208.023438 "/></clipPath><clipPath id="61996fb18f"><path d="M 525.726562 208.023438 L 561.121094 208.023438 C 563.605469 208.023438 565.621094 210.035156 565.621094 212.523438 L 565.621094 269.328125 C 565.621094 271.8125 563.605469 273.828125 561.121094 273.828125 L 525.726562 273.828125 C 523.242188 273.828125 521.226562 271.8125 521.226562 269.328125 L 521.226562 212.523438 C 521.226562 210.035156 523.242188 208.023438 525.726562 208.023438 Z M 525.726562 208.023438 "/></clipPath><clipPath id="6121fa1ff0"><path d="M 356.558594 256.339844 L 400.054688 256.339844 L 400.054688 299.835938 L 356.558594 299.835938 Z M 356.558594 256.339844 "/></clipPath><clipPath id="9fdb4aa154"><path d="M 378.308594 256.339844 C 366.296875 256.339844 356.558594 266.078125 356.558594 278.089844 C 356.558594 290.097656 366.296875 299.835938 378.308594 299.835938 C 390.320312 299.835938 400.054688 290.097656 400.054688 278.089844 C 400.054688 266.078125 390.320312 256.339844 378.308594 256.339844 Z M 378.308594 256.339844 "/></clipPath><clipPath id="e7f88f6d23"><path d="M 251 148 L 412 148 L 412 264 L 251 264 Z M 251 148 "/></clipPath><clipPath id="dd07ffbf93"><path d="M 228.507812 222.957031 L 385.054688 118.40625 L 467.113281 241.273438 L 310.566406 345.824219 Z M 228.507812 222.957031 "/></clipPath><clipPath id="4a90709072"><path d="M 228.507812 222.957031 L 385.054688 118.40625 L 467.113281 241.273438 L 310.566406 345.824219 Z M 228.507812 222.957031 "/></clipPath><clipPath id="a8d0e941da"><path d="M 228.511719 222.957031 L 385.050781 118.40625 L 414.859375 163.039062 L 258.320312 267.589844 Z M 228.511719 222.957031 "/></clipPath><clipPath id="b13d06ddcf"><path d="M 287 185 L 405 185 L 405 272 L 287 272 Z M 287 185 "/></clipPath><clipPath id="d80189636a"><path d="M 228.507812 222.957031 L 385.054688 118.40625 L 467.113281 241.273438 L 310.566406 345.824219 Z M 228.507812 222.957031 "/></clipPath><clipPath id="db0c51ae6f"><path d="M 228.507812 222.957031 L 385.054688 118.40625 L 467.113281 241.273438 L 310.566406 345.824219 Z M 228.507812 222.957031 "/></clipPath><clipPath id="9a6e5414f9"><path d="M 324 222 L 397 222 L 397 279 L 324 279 Z M 324 222 "/></clipPath><clipPath id="b06af6dc36"><path d="M 228.507812 222.957031 L 385.054688 118.40625 L 467.113281 241.273438 L 310.566406 345.824219 Z M 228.507812 222.957031 "/></clipPath><clipPath id="4290ecfe42"><path d="M 228.507812 222.957031 L 385.054688 118.40625 L 467.113281 241.273438 L 310.566406 345.824219 Z M 228.507812 222.957031 "/></clipPath><clipPath id="397e8eb88e"><path d="M 360 259 L 398 259 L 398 297 L 360 297 Z M 360 259 "/></clipPath><clipPath id="ae374130f4"><path d="M 228.507812 222.957031 L 385.054688 118.40625 L 467.113281 241.273438 L 310.566406 345.824219 Z M 228.507812 222.957031 "/></clipPath><clipPath id="61b2384ffe"><path d="M 228.507812 222.957031 L 385.054688 118.40625 L 467.113281 241.273438 L 310.566406 345.824219 Z M 228.507812 222.957031 "/></clipPath><clipPath id="fa36479ac7"><path d="M 352.957031 273.078125 L 383.691406 252.550781 L 404.214844 283.28125 L 373.480469 303.808594 Z M 352.957031 273.078125 "/></clipPath><clipPath id="f85a04713e"><path d="M 565.621094 313.71875 L 603.550781 313.71875 L 603.550781 437.492188 L 565.621094 437.492188 Z M 565.621094 313.71875 "/></clipPath></defs><g id="7a88fba00b"><rect x="0" width="768" y="0" height="767.999994" style="fill:#ffffff;fill-opacity:1;stroke:none;"/><rect x="0" width="768" y="0" height="767.999994" style="fill:#ffffff;fill-opacity:1;stroke:none;"/><g clip-rule="nonzero" clip-path="url(#2399d833d7)"><path style=" stroke:none;fill-rule:nonzero;fill:#ec1414;fill-opacity:1;" d="M 473.414062 265.921875 L 332.273438 382.277344 C 331.863281 382.613281 331.582031 383.074219 331.453125 383.589844 C 331.453125 383.59375 331.453125 383.59375 331.453125 383.59375 C 331.367188 383.929688 331.324219 384.171875 331.324219 384.339844 L 331.324219 504.050781 C 331.324219 508.375 332.90625 512.117188 336.066406 515.277344 C 339.226562 518.429688 342.964844 520.019531 347.289062 520.019531 L 440.589844 520.019531 C 441.949219 520.019531 443.054688 518.914062 443.054688 517.554688 L 443.054688 426.714844 C 443.054688 425.351562 444.160156 424.246094 445.519531 424.246094 L 504.441406 424.246094 C 505.800781 424.246094 506.90625 425.351562 506.90625 426.714844 L 506.90625 517.554688 C 506.90625 518.917969 508.011719 520.023438 509.375 520.023438 L 602.671875 520.023438 C 606.992188 520.023438 610.742188 518.4375 613.894531 515.277344 C 617.054688 512.125 618.640625 508.375 618.640625 504.050781 L 618.640625 384.339844 C 618.640625 384.25 618.636719 384.167969 618.632812 384.082031 C 618.609375 383.394531 618.273438 382.757812 617.738281 382.316406 L 476.550781 265.921875 C 475.640625 265.171875 474.324219 265.171875 473.414062 265.921875 "/></g><g clip-rule="nonzero" clip-path="url(#eb7acb021c)"><path style=" stroke:none;fill-rule:nonzero;fill:#ec1414;fill-opacity:1;" d="M 673.25 355.914062 L 618.632812 310.523438 L 618.632812 208.765625 C 618.632812 206.441406 617.886719 204.527344 616.386719 203.03125 C 614.894531 201.535156 612.984375 200.789062 610.652344 200.789062 L 562.769531 200.789062 C 560.4375 200.789062 558.527344 201.535156 557.03125 203.03125 C 555.535156 204.527344 554.789062 206.441406 554.789062 208.765625 L 554.789062 257.398438 L 493.933594 206.519531 C 488.621094 202.199219 482.300781 200.035156 474.984375 200.035156 C 467.667969 200.035156 461.351562 202.199219 456.03125 206.519531 L 276.707031 355.914062 C 275.046875 357.242188 274.132812 359.03125 273.964844 361.273438 C 273.796875 363.519531 274.375 365.476562 275.707031 367.136719 L 291.171875 385.59375 C 292.503906 387.089844 294.25 388.003906 296.410156 388.339844 C 298.402344 388.503906 300.402344 387.925781 302.398438 386.59375 L 474.980469 242.6875 L 647.566406 386.59375 C 648.898438 387.75 650.640625 388.332031 652.800781 388.332031 L 653.554688 388.332031 C 655.710938 388.003906 657.453125 387.082031 658.789062 385.589844 L 674.253906 367.136719 C 675.582031 365.472656 676.167969 363.515625 675.996094 361.269531 C 675.820312 359.03125 674.90625 357.242188 673.25 355.914062 "/></g><g clip-rule="nonzero" clip-path="url(#580db16d92)"><path style=" stroke:none;fill-rule:nonzero;fill:#ffffff;fill-opacity:1;" d="M 133.808594 320.285156 L 456.511719 320.285156 L 456.511719 648.785156 L 133.808594 648.785156 Z M 133.808594 320.285156 "/></g><g clip-rule="nonzero" clip-path="url(#acced79e8c)"><g clip-rule="nonzero" clip-path="url(#710b54100c)"><g clip-rule="nonzero" clip-path="url(#cd578cbdd3)"><path style=" stroke:none;fill-rule:nonzero;fill:#ffffff;fill-opacity:1;" d="M 482.773438 258.808594 L 644.085938 400.925781 L 499.414062 565.136719 L 338.101562 423.015625 Z M 482.773438 258.808594 "/></g></g></g><g clip-rule="nonzero" clip-path="url(#77dfe3d090)"><path style=" stroke:none;fill-rule:nonzero;fill:#ffffff;fill-opacity:1;" d="M 768.160156 359.925781 L 768.160156 667.15625 L 455.410156 667.15625 L 455.410156 359.925781 Z M 768.160156 359.925781 "/></g><g clip-rule="nonzero" clip-path="url(#ae8972b223)"><g clip-rule="nonzero" clip-path="url(#bed91d3375)"><g clip-rule="nonzero" clip-path="url(#6d1857a214)"><path style=" stroke:none;fill-rule:nonzero;fill:#ffffff;fill-opacity:1;" d="M 476.78125 258.8125 L 611.070312 426.699219 L 440.171875 563.398438 L 305.882812 395.515625 Z M 476.78125 258.8125 "/></g></g></g><g clip-rule="nonzero" clip-path="url(#65abf0c4c2)"><g clip-rule="nonzero" clip-path="url(#fab86fdef6)"><path style=" stroke:none;fill-rule:nonzero;fill:#ec1414;fill-opacity:1;" d="M 458.632812 277.328125 L 473.96875 277.328125 L 473.96875 292.9375 L 458.632812 292.9375 Z M 458.632812 277.328125 "/></g></g><g clip-rule="nonzero" clip-path="url(#42ea0d003a)"><g clip-rule="nonzero" clip-path="url(#0189cf55a4)"><path style=" stroke:none;fill-rule:nonzero;fill:#ec1414;fill-opacity:1;" d="M 475.933594 277.328125 L 491.265625 277.328125 L 491.265625 292.9375 L 475.933594 292.9375 Z M 475.933594 277.328125 "/></g></g><g clip-rule="nonzero" clip-path="url(#94e13c0bf3)"><g clip-rule="nonzero" clip-path="url(#6e7af82cb1)"><path style=" stroke:none;fill-rule:nonzero;fill:#ec1414;fill-opacity:1;" d="M 458.632812 294.878906 L 473.96875 294.878906 L 473.96875 310.488281 L 458.632812 310.488281 Z M 458.632812 294.878906 "/></g></g><g clip-rule="nonzero" clip-path="url(#02f248c836)"><g clip-rule="nonzero" clip-path="url(#ab2b9532a4)"><path style=" stroke:none;fill-rule:nonzero;fill:#ec1414;fill-opacity:1;" d="M 475.933594 294.878906 L 491.265625 294.878906 L 491.265625 310.488281 L 475.933594 310.488281 Z M 475.933594 294.878906 "/></g></g><g clip-rule="nonzero" clip-path="url(#bd4a6fa2f2)"><g clip-rule="nonzero" clip-path="url(#2fda9bb7b0)"><path style=" stroke:none;fill-rule:nonzero;fill:#ffffff;fill-opacity:1;" d="M 515.222656 99.4375 L 742.152344 292.453125 L 680.695312 364.707031 L 453.765625 171.695312 Z M 515.222656 99.4375 "/></g></g><g clip-rule="nonzero" clip-path="url(#773b637189)"><g clip-rule="nonzero" clip-path="url(#61996fb18f)"><path style=" stroke:none;fill-rule:nonzero;fill:#ec1414;fill-opacity:1;" d="M 521.226562 208.023438 L 565.621094 208.023438 L 565.621094 273.746094 L 521.226562 273.746094 Z M 521.226562 208.023438 "/></g></g><g style="fill:#ec1414;fill-opacity:1;"><g transform="translate(100.072469, 393.384741)"><path style="stroke:none" d="M 6.828125 0 L 6.828125 -64.96875 L 19.90625 -64.96875 L 19.90625 0 Z M 6.828125 0 "/></g></g><g style="fill:#ec1414;fill-opacity:1;"><g transform="translate(126.797997, 393.384741)"><path style="stroke:none" d="M 46.09375 -64.96875 L 58.28125 -64.96875 L 58.28125 0 L 45.109375 0 L 19.015625 -42.375 L 19.015625 0 L 6.828125 0 L 6.828125 -64.96875 L 19.546875 -64.96875 L 46.09375 -21.578125 Z M 46.09375 -64.96875 "/></g></g><g style="fill:#ec1414;fill-opacity:1;"><g transform="translate(191.905453, 393.384741)"><path style="stroke:none" d="M 61.296875 -32 C 61.296875 -22.070312 58.921875 -14.253906 54.171875 -8.546875 C 49.429688 -2.847656 42.113281 0 32.21875 0 L 6.828125 0 L 6.828125 -64.96875 L 32.359375 -64.96875 C 51.648438 -64.96875 61.296875 -53.976562 61.296875 -32 Z M 47.734375 -32.390625 C 47.734375 -37.742188 47.125 -41.984375 45.90625 -45.109375 C 44.695312 -48.242188 42.828125 -50.503906 40.296875 -51.890625 C 37.773438 -53.285156 34.414062 -53.984375 30.21875 -53.984375 L 19.90625 -53.984375 L 19.90625 -10.984375 L 30.40625 -10.984375 C 34.75 -10.984375 38.164062 -11.65625 40.65625 -13 C 43.15625 -14.351562 44.957031 -16.570312 46.0625 -19.65625 C 47.175781 -22.738281 47.734375 -26.984375 47.734375 -32.390625 Z M 47.734375 -32.390625 "/></g></g><g style="fill:#ec1414;fill-opacity:1;"><g transform="translate(257.10155, 393.384741)"><path style="stroke:none" d="M 6.828125 0 L 6.828125 -64.96875 L 19.90625 -64.96875 L 19.90625 0 Z M 6.828125 0 "/></g></g><g style="fill:#ec1414;fill-opacity:1;"><g transform="translate(283.827087, 393.384741)"><path style="stroke:none" d="M 45.5625 -39.9375 L 45.5625 -64.96875 L 58.640625 -64.96875 L 58.640625 0 L 45.5625 0 L 45.5625 -28.9375 L 19.90625 -28.9375 L 19.90625 0 L 6.828125 0 L 6.828125 -64.96875 L 19.90625 -64.96875 L 19.90625 -39.9375 Z M 45.5625 -39.9375 "/></g></g><g style="fill:#ec1414;fill-opacity:1;"><g transform="translate(349.289101, 393.384741)"><path style="stroke:none" d="M 3.90625 -32.125 C 3.90625 -38.976562 5.195312 -44.953125 7.78125 -50.046875 C 10.363281 -55.148438 14.046875 -59.097656 18.828125 -61.890625 C 23.617188 -64.679688 29.207031 -66.078125 35.59375 -66.078125 C 42 -66.078125 47.59375 -64.6875 52.375 -61.90625 C 57.164062 -59.132812 60.859375 -55.207031 63.453125 -50.125 C 66.054688 -45.039062 67.359375 -39.128906 67.359375 -32.390625 C 67.359375 -25.835938 66.082031 -20.023438 63.53125 -14.953125 C 60.976562 -9.890625 57.320312 -5.945312 52.5625 -3.125 C 47.800781 -0.300781 42.203125 1.109375 35.765625 1.109375 C 29.328125 1.109375 23.695312 -0.285156 18.875 -3.078125 C 14.0625 -5.867188 10.363281 -9.78125 7.78125 -14.8125 C 5.195312 -19.851562 3.90625 -25.625 3.90625 -32.125 Z M 35.59375 -54.828125 C 31.863281 -54.828125 28.632812 -53.875 25.90625 -51.96875 C 23.175781 -50.0625 21.085938 -47.421875 19.640625 -44.046875 C 18.191406 -40.679688 17.46875 -36.828125 17.46875 -32.484375 C 17.46875 -28.140625 18.175781 -24.28125 19.59375 -20.90625 C 21.007812 -17.539062 23.085938 -14.90625 25.828125 -13 C 28.578125 -11.101562 31.859375 -10.15625 35.671875 -10.15625 C 39.429688 -10.15625 42.675781 -11.097656 45.40625 -12.984375 C 48.132812 -14.878906 50.210938 -17.523438 51.640625 -20.921875 C 53.078125 -24.316406 53.796875 -28.226562 53.796875 -32.65625 C 53.796875 -36.914062 53.078125 -40.722656 51.640625 -44.078125 C 50.210938 -47.429688 48.132812 -50.0625 45.40625 -51.96875 C 42.675781 -53.875 39.40625 -54.828125 35.59375 -54.828125 Z M 35.59375 -54.828125 "/></g></g><g style="fill:#ec1414;fill-opacity:1;"><g transform="translate(420.557161, 393.384741)"><path style="stroke:none" d="M 52.515625 -64.96875 L 72.234375 -64.96875 L 72.234375 0 L 60.046875 0 L 60.046875 -51.1875 L 45.921875 0 L 33.328125 0 L 19.015625 -51.1875 L 19.015625 0 L 6.828125 0 L 6.828125 -64.96875 L 26.453125 -64.96875 L 39.671875 -18.96875 Z M 52.515625 -64.96875 "/></g></g><g style="fill:#ec1414;fill-opacity:1;"><g transform="translate(499.625706, 393.384741)"><path style="stroke:none" d="M 19.90625 -53.984375 L 19.90625 -39.140625 L 47.203125 -39.140625 L 47.203125 -28.140625 L 19.90625 -28.140625 L 19.90625 -10.984375 L 51.1875 -10.984375 L 51.1875 0 L 6.828125 0 L 6.828125 -64.96875 L 49.640625 -64.96875 L 49.640625 -53.984375 Z M 19.90625 -53.984375 "/></g></g><g clip-rule="nonzero" clip-path="url(#6121fa1ff0)"><g clip-rule="nonzero" clip-path="url(#9fdb4aa154)"><path style=" stroke:none;fill-rule:nonzero;fill:#ffffff;fill-opacity:1;" d="M 356.558594 256.339844 L 400.054688 256.339844 L 400.054688 299.835938 L 356.558594 299.835938 Z M 356.558594 256.339844 "/></g></g><g clip-rule="nonzero" clip-path="url(#e7f88f6d23)"><g clip-rule="nonzero" clip-path="url(#dd07ffbf93)"><g clip-rule="nonzero" clip-path="url(#4a90709072)"><g clip-rule="nonzero" clip-path="url(#a8d0e941da)"><path style=" stroke:none;fill-rule:nonzero;fill:#ec1414;fill-opacity:1;" d="M 407.15625 168.136719 C 405.191406 169.449219 402.726562 170.011719 400.226562 169.511719 C 386.15625 166.710938 371.878906 166.652344 357.792969 169.34375 C 343.152344 172.140625 329.441406 177.757812 317.039062 186.039062 C 304.632812 194.324219 294.191406 204.835938 286.003906 217.289062 C 278.121094 229.269531 272.703125 242.480469 269.902344 256.550781 C 268.90625 261.550781 264.046875 264.800781 259.042969 263.800781 C 254.042969 262.808594 250.792969 257.945312 251.789062 252.941406 C 255.058594 236.527344 261.378906 221.117188 270.574219 207.140625 C 280.128906 192.613281 292.3125 180.347656 306.78125 170.683594 C 321.25 161.019531 337.25 154.464844 354.328125 151.203125 C 370.761719 148.0625 387.417969 148.128906 403.832031 151.398438 C 408.832031 152.394531 412.082031 157.257812 411.085938 162.257812 C 410.585938 164.761719 409.121094 166.820312 407.15625 168.136719 "/></g></g></g></g><g clip-rule="nonzero" clip-path="url(#b13d06ddcf)"><g clip-rule="nonzero" clip-path="url(#d80189636a)"><g clip-rule="nonzero" clip-path="url(#db0c51ae6f)"><path style=" stroke:none;fill-rule:nonzero;fill:#ec1414;fill-opacity:1;" d="M 399.941406 204.359375 C 397.976562 205.671875 395.511719 206.238281 393.011719 205.738281 C 383.628906 203.871094 374.113281 203.832031 364.722656 205.625 C 354.964844 207.488281 345.824219 211.234375 337.554688 216.757812 C 329.28125 222.28125 322.320312 229.289062 316.863281 237.589844 C 311.609375 245.574219 307.996094 254.382812 306.128906 263.761719 C 305.132812 268.765625 300.269531 272.011719 295.269531 271.015625 C 290.265625 270.019531 287.019531 265.160156 288.015625 260.15625 C 290.351562 248.429688 294.863281 237.425781 301.433594 227.441406 C 308.257812 217.0625 316.957031 208.300781 327.296875 201.398438 C 337.632812 194.496094 349.058594 189.8125 361.257812 187.484375 C 372.996094 185.242188 384.894531 185.289062 396.617188 187.625 C 401.621094 188.621094 404.867188 193.484375 403.871094 198.484375 C 403.371094 200.984375 401.90625 203.046875 399.941406 204.359375 "/></g></g></g><g clip-rule="nonzero" clip-path="url(#9a6e5414f9)"><g clip-rule="nonzero" clip-path="url(#b06af6dc36)"><g clip-rule="nonzero" clip-path="url(#4290ecfe42)"><path style=" stroke:none;fill-rule:nonzero;fill:#ec1414;fill-opacity:1;" d="M 392.730469 240.585938 C 390.761719 241.902344 388.296875 242.464844 385.796875 241.964844 C 381.105469 241.03125 376.34375 241.011719 371.648438 241.90625 C 366.773438 242.839844 362.203125 244.710938 358.066406 247.472656 C 353.929688 250.238281 350.449219 253.742188 347.722656 257.886719 C 345.097656 261.882812 343.289062 266.285156 342.355469 270.976562 C 341.359375 275.980469 336.496094 279.226562 331.496094 278.230469 C 326.492188 277.234375 323.246094 272.371094 324.242188 267.371094 C 325.644531 260.332031 328.351562 253.730469 332.292969 247.738281 C 336.386719 241.515625 341.605469 236.257812 347.8125 232.117188 C 354.011719 227.972656 360.867188 225.164062 368.1875 223.765625 C 375.226562 222.421875 382.367188 222.449219 389.402344 223.851562 C 394.40625 224.847656 397.652344 229.710938 396.65625 234.710938 C 396.160156 237.214844 394.695312 239.273438 392.730469 240.585938 "/></g></g></g><g clip-rule="nonzero" clip-path="url(#397e8eb88e)"><g clip-rule="nonzero" clip-path="url(#ae374130f4)"><g clip-rule="nonzero" clip-path="url(#61b2384ffe)"><g clip-rule="nonzero" clip-path="url(#fa36479ac7)"><path style=" stroke:none;fill-rule:nonzero;fill:#ec1414;fill-opacity:1;" d="M 388.839844 293.550781 C 380.371094 299.207031 368.878906 296.917969 363.222656 288.449219 C 357.566406 279.980469 359.855469 268.488281 368.324219 262.832031 C 376.792969 257.175781 388.285156 259.464844 393.941406 267.933594 C 399.597656 276.402344 397.308594 287.894531 388.839844 293.550781 "/></g></g></g></g><g style="fill:#ec1414;fill-opacity:1;"><g transform="translate(106.729407, 432.235897)"><path style="stroke:none" d="M 3.390625 0 L 3.390625 -32.21875 L 9.859375 -32.21875 L 9.859375 0 Z M 3.390625 0 "/></g></g><g style="fill:#ec1414;fill-opacity:1;"><g transform="translate(131.318914, 432.235897)"><path style="stroke:none" d="M 22.859375 -32.21875 L 28.890625 -32.21875 L 28.890625 0 L 22.375 0 L 9.421875 -21 L 9.421875 0 L 3.390625 0 L 3.390625 -32.21875 L 9.6875 -32.21875 L 22.859375 -10.703125 Z M 22.859375 -32.21875 "/></g></g><g style="fill:#ec1414;fill-opacity:1;"><g transform="translate(174.936739, 432.235897)"><path style="stroke:none" d="M 13.859375 -27.40625 C 12.484375 -27.40625 11.332031 -27.125 10.40625 -26.5625 C 9.476562 -26.007812 9.015625 -25.226562 9.015625 -24.21875 C 9.015625 -23.539062 9.222656 -22.960938 9.640625 -22.484375 C 10.066406 -22.015625 10.789062 -21.582031 11.8125 -21.1875 C 12.84375 -20.789062 14.300781 -20.367188 16.1875 -19.921875 C 19.03125 -19.265625 21.242188 -18.472656 22.828125 -17.546875 C 24.421875 -16.617188 25.535156 -15.503906 26.171875 -14.203125 C 26.816406 -12.910156 27.140625 -11.300781 27.140625 -9.375 C 27.140625 -7.15625 26.554688 -5.300781 25.390625 -3.8125 C 24.222656 -2.320312 22.6875 -1.222656 20.78125 -0.515625 C 18.882812 0.191406 16.800781 0.546875 14.53125 0.546875 C 10.875 0.546875 7.914062 -0.378906 5.65625 -2.234375 C 3.40625 -4.097656 2.03125 -6.773438 1.53125 -10.265625 L 8.015625 -11.046875 C 8.398438 -8.941406 9.125 -7.390625 10.1875 -6.390625 C 11.25 -5.398438 12.753906 -4.90625 14.703125 -4.90625 C 15.867188 -4.90625 16.898438 -5.066406 17.796875 -5.390625 C 18.703125 -5.722656 19.40625 -6.1875 19.90625 -6.78125 C 20.40625 -7.382812 20.65625 -8.097656 20.65625 -8.921875 C 20.65625 -9.859375 20.472656 -10.585938 20.109375 -11.109375 C 19.753906 -11.640625 19.050781 -12.117188 18 -12.546875 C 16.957031 -12.984375 15.320312 -13.46875 13.09375 -14 C 10.46875 -14.625 8.394531 -15.394531 6.875 -16.3125 C 5.351562 -17.238281 4.273438 -18.300781 3.640625 -19.5 C 3.003906 -20.707031 2.6875 -22.117188 2.6875 -23.734375 C 2.6875 -25.492188 3.132812 -27.050781 4.03125 -28.40625 C 4.9375 -29.769531 6.25 -30.835938 7.96875 -31.609375 C 9.695312 -32.378906 11.765625 -32.765625 14.171875 -32.765625 C 17.628906 -32.765625 20.378906 -31.96875 22.421875 -30.375 C 24.460938 -28.789062 25.734375 -26.476562 26.234375 -23.4375 L 19.75 -22.71875 C 19.550781 -24.382812 18.972656 -25.582031 18.015625 -26.3125 C 17.066406 -27.039062 15.679688 -27.40625 13.859375 -27.40625 Z M 13.859375 -27.40625 "/></g></g><g style="fill:#ec1414;fill-opacity:1;"><g transform="translate(214.269898, 432.235897)"><path style="stroke:none" d="M 16.890625 -26.765625 L 16.890625 0 L 10.421875 0 L 10.421875 -26.765625 L 1.09375 -26.765625 L 1.09375 -32.21875 L 26.21875 -32.21875 L 26.21875 -26.765625 Z M 16.890625 -26.765625 "/></g></g><g style="fill:#ec1414;fill-opacity:1;"><g transform="translate(249.406279, 432.235897)"><path style="stroke:none" d="M 24.890625 0 L 22.109375 -7.296875 L 9.671875 -7.296875 L 7.015625 0 L 0.09375 0 L 12.640625 -32.21875 L 19.078125 -32.21875 L 32 0 Z M 14.296875 -20.015625 L 11.640625 -12.75 L 20.015625 -12.75 L 17.3125 -20.015625 C 16.957031 -20.953125 16.644531 -21.910156 16.375 -22.890625 C 16.101562 -23.878906 15.925781 -24.679688 15.84375 -25.296875 L 15.671875 -25.296875 C 15.398438 -23.535156 14.941406 -21.773438 14.296875 -20.015625 Z M 14.296875 -20.015625 "/></g></g><g style="fill:#ec1414;fill-opacity:1;"><g transform="translate(292.826352, 432.235897)"><path style="stroke:none" d="M 24.265625 -5.453125 L 24.265625 0 L 3.390625 0 L 3.390625 -32.21875 L 9.859375 -32.21875 L 9.859375 -5.453125 Z M 24.265625 -5.453125 "/></g></g><g style="fill:#ec1414;fill-opacity:1;"><g transform="translate(329.610682, 432.235897)"><path style="stroke:none" d="M 24.265625 -5.453125 L 24.265625 0 L 3.390625 0 L 3.390625 -32.21875 L 9.859375 -32.21875 L 9.859375 -5.453125 Z M 24.265625 -5.453125 "/></g></g><g style="fill:#ec1414;fill-opacity:1;"><g transform="translate(366.395012, 432.235897)"><path style="stroke:none" d="M 24.890625 0 L 22.109375 -7.296875 L 9.671875 -7.296875 L 7.015625 0 L 0.09375 0 L 12.640625 -32.21875 L 19.078125 -32.21875 L 32 0 Z M 14.296875 -20.015625 L 11.640625 -12.75 L 20.015625 -12.75 L 17.3125 -20.015625 C 16.957031 -20.953125 16.644531 -21.910156 16.375 -22.890625 C 16.101562 -23.878906 15.925781 -24.679688 15.84375 -25.296875 L 15.671875 -25.296875 C 15.398438 -23.535156 14.941406 -21.773438 14.296875 -20.015625 Z M 14.296875 -20.015625 "/></g></g><g style="fill:#ec1414;fill-opacity:1;"><g transform="translate(406.29946, 432.235897)"><path style="stroke:none" d="M 16.890625 -26.765625 L 16.890625 0 L 10.421875 0 L 10.421875 -26.765625 L 1.09375 -26.765625 L 1.09375 -32.21875 L 26.21875 -32.21875 L 26.21875 -26.765625 Z M 16.890625 -26.765625 "/></g></g><g style="fill:#ec1414;fill-opacity:1;"><g transform="translate(444.951467, 432.235897)"><path style="stroke:none" d="M 3.390625 0 L 3.390625 -32.21875 L 9.859375 -32.21875 L 9.859375 0 Z M 3.390625 0 "/></g></g><g style="fill:#ec1414;fill-opacity:1;"><g transform="translate(469.540974, 432.235897)"><path style="stroke:none" d="M 1.9375 -15.9375 C 1.9375 -19.332031 2.578125 -22.289062 3.859375 -24.8125 C 5.140625 -27.34375 6.960938 -29.300781 9.328125 -30.6875 C 11.703125 -32.070312 14.472656 -32.765625 17.640625 -32.765625 C 20.816406 -32.765625 23.59375 -32.070312 25.96875 -30.6875 C 28.34375 -29.3125 30.175781 -27.363281 31.46875 -24.84375 C 32.757812 -22.332031 33.40625 -19.40625 33.40625 -16.0625 C 33.40625 -12.8125 32.769531 -9.925781 31.5 -7.40625 C 30.226562 -4.894531 28.410156 -2.941406 26.046875 -1.546875 C 23.691406 -0.148438 20.921875 0.546875 17.734375 0.546875 C 14.535156 0.546875 11.742188 -0.144531 9.359375 -1.53125 C 6.972656 -2.914062 5.140625 -4.851562 3.859375 -7.34375 C 2.578125 -9.84375 1.9375 -12.707031 1.9375 -15.9375 Z M 17.640625 -27.1875 C 15.796875 -27.1875 14.195312 -26.710938 12.84375 -25.765625 C 11.488281 -24.816406 10.453125 -23.507812 9.734375 -21.84375 C 9.015625 -20.175781 8.65625 -18.265625 8.65625 -16.109375 C 8.65625 -13.953125 9.003906 -12.035156 9.703125 -10.359375 C 10.410156 -8.691406 11.445312 -7.382812 12.8125 -6.4375 C 14.175781 -5.5 15.800781 -5.03125 17.6875 -5.03125 C 19.550781 -5.03125 21.160156 -5.5 22.515625 -6.4375 C 23.867188 -7.375 24.898438 -8.679688 25.609375 -10.359375 C 26.316406 -12.046875 26.671875 -13.988281 26.671875 -16.1875 C 26.671875 -18.300781 26.316406 -20.1875 25.609375 -21.84375 C 24.898438 -23.507812 23.867188 -24.816406 22.515625 -25.765625 C 21.160156 -26.710938 19.535156 -27.1875 17.640625 -27.1875 Z M 17.640625 -27.1875 "/></g></g><g style="fill:#ec1414;fill-opacity:1;"><g transform="translate(516.212999, 432.235897)"><path style="stroke:none" d="M 22.859375 -32.21875 L 28.890625 -32.21875 L 28.890625 0 L 22.375 0 L 9.421875 -21 L 9.421875 0 L 3.390625 0 L 3.390625 -32.21875 L 9.6875 -32.21875 L 22.859375 -10.703125 Z M 22.859375 -32.21875 "/></g></g><g style="fill:#ec1414;fill-opacity:1;"><g transform="translate(87.874518, 472.792317)"><path style="stroke:none" d="M 14.140625 -8.875 C 14.703125 -7.21875 15.070312 -6.082031 15.25 -5.46875 C 15.414062 -4.894531 15.535156 -4.460938 15.609375 -4.171875 L 15.6875 -4.171875 C 15.757812 -4.390625 15.960938 -5.015625 16.296875 -6.046875 L 17.09375 -8.4375 L 23.265625 -26.484375 L 28.078125 -26.484375 L 28.078125 0 L 24.75 0 L 24.75 -22.171875 L 24.671875 -22.171875 L 17.0625 0 L 13.90625 0 L 6.328125 -22.53125 L 6.21875 -22.53125 L 6.21875 0 L 2.890625 0 L 2.890625 -26.484375 L 8.25 -26.484375 Z M 14.140625 -8.875 "/></g></g><g style="fill:#ec1414;fill-opacity:1;"><g transform="translate(118.837067, 472.792317)"><path style="stroke:none" d="M 24.671875 0 L 20.78125 0 L 17.671875 -8.0625 L 6.625 -8.0625 L 3.671875 0 L 0 0 L 10.140625 -26.484375 L 13.90625 -26.484375 Z M 10.375 -18.3125 L 7.625 -10.84375 L 16.609375 -10.84375 L 13.71875 -18.359375 C 13.414062 -19.148438 13.132812 -19.945312 12.875 -20.75 C 12.625 -21.5625 12.34375 -22.550781 12.03125 -23.71875 L 11.953125 -23.71875 C 11.609375 -22.070312 11.082031 -20.269531 10.375 -18.3125 Z M 10.375 -18.3125 "/></g></g><g style="fill:#ec1414;fill-opacity:1;"><g transform="translate(143.513171, 472.792317)"><path style="stroke:none" d="M 15.53125 -7.9375 C 15.53125 -2.34375 13.0625 0.453125 8.125 0.453125 C 5.875 0.453125 4.128906 -0.21875 2.890625 -1.5625 C 1.648438 -2.90625 1.019531 -4.84375 1 -7.375 L 4.140625 -8.109375 C 4.160156 -6.273438 4.5 -4.914062 5.15625 -4.03125 C 5.820312 -3.144531 6.804688 -2.703125 8.109375 -2.703125 C 9.023438 -2.703125 9.769531 -2.875 10.34375 -3.21875 C 10.914062 -3.5625 11.335938 -4.125 11.609375 -4.90625 C 11.890625 -5.695312 12.03125 -6.765625 12.03125 -8.109375 L 12.03125 -26.484375 L 15.53125 -26.484375 Z M 15.53125 -7.9375 "/></g></g><g style="fill:#ec1414;fill-opacity:1;"><g transform="translate(161.758315, 472.792317)"><path style="stroke:none" d="M 24.671875 0 L 20.78125 0 L 17.671875 -8.0625 L 6.625 -8.0625 L 3.671875 0 L 0 0 L 10.140625 -26.484375 L 13.90625 -26.484375 Z M 10.375 -18.3125 L 7.625 -10.84375 L 16.609375 -10.84375 L 13.71875 -18.359375 C 13.414062 -19.148438 13.132812 -19.945312 12.875 -20.75 C 12.625 -21.5625 12.34375 -22.550781 12.03125 -23.71875 L 11.953125 -23.71875 C 11.609375 -22.070312 11.082031 -20.269531 10.375 -18.3125 Z M 10.375 -18.3125 "/></g></g><g style="fill:#ec1414;fill-opacity:1;"><g transform="translate(186.434419, 472.792317)"><path style="stroke:none" d="M 6.390625 -3.140625 L 19.453125 -3.140625 L 19.453125 0 L 2.890625 0 L 2.890625 -26.484375 L 6.390625 -26.484375 Z M 6.390625 -3.140625 "/></g></g><g style="fill:#ec1414;fill-opacity:1;"><g transform="translate(207.009888, 472.792317)"><path style="stroke:none" d="M 19.53125 -23.34375 L 6.390625 -23.34375 L 6.390625 -15.25 L 18.53125 -15.25 L 18.53125 -12.109375 L 6.390625 -12.109375 L 6.390625 -3.140625 L 20.15625 -3.140625 L 20.15625 0 L 2.890625 0 L 2.890625 -26.484375 L 19.53125 -26.484375 Z M 19.53125 -23.34375 "/></g></g><g style="fill:#ec1414;fill-opacity:1;"><g transform="translate(229.102775, 472.792317)"><path style="stroke:none" d="M 19.796875 -5.8125 L 19.875 -5.8125 L 19.875 -26.484375 L 23.203125 -26.484375 L 23.203125 0 L 19.609375 0 L 6.28125 -20.6875 L 6.21875 -20.6875 L 6.21875 0 L 2.890625 0 L 2.890625 -26.484375 L 6.5 -26.484375 Z M 19.796875 -5.8125 "/></g></g><g style="fill:#ec1414;fill-opacity:1;"><g transform="translate(255.18791, 472.792317)"><path style="stroke:none" d="M 13.953125 -23.9375 C 12.140625 -23.9375 10.585938 -23.492188 9.296875 -22.609375 C 8.003906 -21.734375 7.019531 -20.492188 6.34375 -18.890625 C 5.664062 -17.296875 5.328125 -15.4375 5.328125 -13.3125 C 5.328125 -11.0625 5.679688 -9.128906 6.390625 -7.515625 C 7.109375 -5.910156 8.148438 -4.679688 9.515625 -3.828125 C 10.890625 -2.972656 12.550781 -2.546875 14.5 -2.546875 C 15.757812 -2.546875 17.050781 -2.773438 18.375 -3.234375 C 19.707031 -3.691406 20.796875 -4.253906 21.640625 -4.921875 L 21.640625 -10.359375 L 14.296875 -10.359375 L 14.296875 -13.515625 L 25.046875 -13.515625 L 25.046875 -3.421875 C 23.660156 -2.210938 22.039062 -1.265625 20.1875 -0.578125 C 18.34375 0.109375 16.460938 0.453125 14.546875 0.453125 C 11.847656 0.453125 9.535156 -0.0859375 7.609375 -1.171875 C 5.679688 -2.265625 4.210938 -3.84375 3.203125 -5.90625 C 2.203125 -7.976562 1.703125 -10.457031 1.703125 -13.34375 C 1.703125 -16.0625 2.210938 -18.441406 3.234375 -20.484375 C 4.265625 -22.523438 5.71875 -24.109375 7.59375 -25.234375 C 9.46875 -26.367188 11.601562 -26.9375 14 -26.9375 C 16.769531 -26.9375 19.0625 -26.273438 20.875 -24.953125 C 22.6875 -23.628906 23.941406 -21.710938 24.640625 -19.203125 L 21.203125 -18.390625 C 20.703125 -20.203125 19.828125 -21.578125 18.578125 -22.515625 C 17.335938 -23.460938 15.796875 -23.9375 13.953125 -23.9375 Z M 13.953125 -23.9375 "/></g></g><g style="fill:#ec1414;fill-opacity:1;"><g transform="translate(282.609829, 472.792317)"><path style="stroke:none" d="M 6.390625 -13.796875 L 18.140625 -26.484375 L 22.671875 -26.484375 L 12.53125 -15.984375 L 23.125 0 L 18.921875 0 L 10.171875 -13.59375 L 6.390625 -9.671875 L 6.390625 0 L 2.890625 0 L 2.890625 -26.484375 L 6.390625 -26.484375 Z M 6.390625 -13.796875 "/></g></g><g style="fill:#ec1414;fill-opacity:1;"><g transform="translate(305.804622, 472.792317)"><path style="stroke:none" d="M 24.671875 0 L 20.78125 0 L 17.671875 -8.0625 L 6.625 -8.0625 L 3.671875 0 L 0 0 L 10.140625 -26.484375 L 13.90625 -26.484375 Z M 10.375 -18.3125 L 7.625 -10.84375 L 16.609375 -10.84375 L 13.71875 -18.359375 C 13.414062 -19.148438 13.132812 -19.945312 12.875 -20.75 C 12.625 -21.5625 12.34375 -22.550781 12.03125 -23.71875 L 11.953125 -23.71875 C 11.609375 -22.070312 11.082031 -20.269531 10.375 -18.3125 Z M 10.375 -18.3125 "/></g></g><g style="fill:#ec1414;fill-opacity:1;"><g transform="translate(330.480738, 472.792317)"><path style="stroke:none" d=""/></g></g><g style="fill:#ec1414;fill-opacity:1;"><g transform="translate(340.651056, 472.792317)"><path style="stroke:none" d="M 19.734375 -12.46875 L 23.09375 -11.71875 C 22.5 -9.507812 21.632812 -7.566406 20.5 -5.890625 C 21.09375 -5.210938 21.800781 -4.503906 22.625 -3.765625 C 23.445312 -3.023438 24.164062 -2.453125 24.78125 -2.046875 L 22.703125 0.625 C 22.046875 0.226562 21.375 -0.265625 20.6875 -0.859375 C 20 -1.453125 19.234375 -2.210938 18.390625 -3.140625 C 17.242188 -1.953125 16.019531 -1.054688 14.71875 -0.453125 C 13.414062 0.148438 11.972656 0.453125 10.390625 0.453125 C 8.671875 0.453125 7.140625 0.101562 5.796875 -0.59375 C 4.460938 -1.289062 3.425781 -2.234375 2.6875 -3.421875 C 1.957031 -4.609375 1.59375 -5.894531 1.59375 -7.28125 C 1.59375 -8.957031 2.144531 -10.445312 3.25 -11.75 C 4.363281 -13.0625 6.007812 -14.21875 8.1875 -15.21875 C 7.0625 -16.457031 6.257812 -17.503906 5.78125 -18.359375 C 5.3125 -19.222656 5.078125 -20.109375 5.078125 -21.015625 C 5.078125 -22.171875 5.367188 -23.195312 5.953125 -24.09375 C 6.535156 -24.988281 7.347656 -25.6875 8.390625 -26.1875 C 9.441406 -26.6875 10.644531 -26.9375 12 -26.9375 C 13.21875 -26.9375 14.316406 -26.6875 15.296875 -26.1875 C 16.285156 -25.695312 17.0625 -25.019531 17.625 -24.15625 C 18.1875 -23.300781 18.46875 -22.34375 18.46875 -21.28125 C 18.46875 -20.019531 18.015625 -18.828125 17.109375 -17.703125 C 16.210938 -16.585938 14.863281 -15.582031 13.0625 -14.6875 L 18.25 -8.578125 C 18.539062 -9.160156 18.832031 -9.828125 19.125 -10.578125 C 19.414062 -11.335938 19.617188 -11.96875 19.734375 -12.46875 Z M 15.140625 -21.203125 C 15.140625 -21.785156 14.988281 -22.304688 14.6875 -22.765625 C 14.394531 -23.234375 13.992188 -23.597656 13.484375 -23.859375 C 12.972656 -24.128906 12.398438 -24.265625 11.765625 -24.265625 C 11.117188 -24.265625 10.539062 -24.144531 10.03125 -23.90625 C 9.519531 -23.675781 9.117188 -23.347656 8.828125 -22.921875 C 8.546875 -22.503906 8.40625 -22.019531 8.40625 -21.46875 C 8.40625 -20.613281 8.832031 -19.6875 9.6875 -18.6875 L 11.296875 -16.796875 C 12.328125 -17.367188 13.125 -17.890625 13.6875 -18.359375 C 14.25 -18.828125 14.628906 -19.28125 14.828125 -19.71875 C 15.035156 -20.15625 15.140625 -20.648438 15.140625 -21.203125 Z M 5.109375 -7.28125 C 5.109375 -6.382812 5.347656 -5.566406 5.828125 -4.828125 C 6.304688 -4.085938 6.953125 -3.503906 7.765625 -3.078125 C 8.578125 -2.648438 9.46875 -2.4375 10.4375 -2.4375 C 11.445312 -2.4375 12.488281 -2.71875 13.5625 -3.28125 C 14.632812 -3.851562 15.550781 -4.617188 16.3125 -5.578125 L 9.984375 -13.0625 C 8.742188 -12.351562 7.769531 -11.691406 7.0625 -11.078125 C 6.363281 -10.460938 5.863281 -9.851562 5.5625 -9.25 C 5.257812 -8.644531 5.109375 -7.988281 5.109375 -7.28125 Z M 5.109375 -7.28125 "/></g></g><g style="fill:#ec1414;fill-opacity:1;"><g transform="translate(366.03167, 472.792317)"><path style="stroke:none" d=""/></g></g><g style="fill:#ec1414;fill-opacity:1;"><g transform="translate(376.201988, 472.792317)"><path style="stroke:none" d="M 18.078125 -18.546875 C 17.691406 -20.472656 16.988281 -21.851562 15.96875 -22.6875 C 14.957031 -23.519531 13.578125 -23.9375 11.828125 -23.9375 C 10.691406 -23.9375 9.679688 -23.765625 8.796875 -23.421875 C 7.921875 -23.085938 7.234375 -22.609375 6.734375 -21.984375 C 6.242188 -21.367188 6 -20.65625 6 -19.84375 C 6 -19 6.21875 -18.320312 6.65625 -17.8125 C 7.101562 -17.3125 7.785156 -16.890625 8.703125 -16.546875 C 9.628906 -16.210938 10.957031 -15.859375 12.6875 -15.484375 C 15.050781 -14.960938 16.929688 -14.363281 18.328125 -13.6875 C 19.722656 -13.019531 20.734375 -12.1875 21.359375 -11.1875 C 21.992188 -10.195312 22.3125 -8.960938 22.3125 -7.484375 C 22.3125 -5.984375 21.898438 -4.628906 21.078125 -3.421875 C 20.253906 -2.222656 19.113281 -1.273438 17.65625 -0.578125 C 16.195312 0.109375 14.550781 0.453125 12.71875 0.453125 C 9.550781 0.453125 7.019531 -0.285156 5.125 -1.765625 C 3.226562 -3.253906 2.070312 -5.414062 1.65625 -8.25 L 5.109375 -9.0625 C 5.347656 -6.894531 6.097656 -5.265625 7.359375 -4.171875 C 8.617188 -3.085938 10.359375 -2.546875 12.578125 -2.546875 C 13.734375 -2.546875 14.796875 -2.734375 15.765625 -3.109375 C 16.742188 -3.484375 17.519531 -4.003906 18.09375 -4.671875 C 18.664062 -5.335938 18.953125 -6.085938 18.953125 -6.921875 C 18.953125 -8.023438 18.679688 -8.882812 18.140625 -9.5 C 17.597656 -10.125 16.789062 -10.625 15.71875 -11 C 14.820312 -11.3125 13.523438 -11.664062 11.828125 -12.0625 C 10.816406 -12.289062 10.109375 -12.46875 9.703125 -12.59375 C 7.859375 -13.082031 6.421875 -13.675781 5.390625 -14.375 C 4.359375 -15.070312 3.640625 -15.863281 3.234375 -16.75 C 2.835938 -17.632812 2.640625 -18.6875 2.640625 -19.90625 C 2.640625 -21.226562 3.03125 -22.425781 3.8125 -23.5 C 4.601562 -24.570312 5.691406 -25.410156 7.078125 -26.015625 C 8.472656 -26.628906 10.035156 -26.9375 11.765625 -26.9375 C 13.578125 -26.9375 15.179688 -26.632812 16.578125 -26.03125 C 17.984375 -25.425781 19.109375 -24.550781 19.953125 -23.40625 C 20.804688 -22.269531 21.332031 -20.90625 21.53125 -19.3125 L 18.15625 -18.546875 Z M 18.078125 -18.546875 "/></g></g><g style="fill:#ec1414;fill-opacity:1;"><g transform="translate(400.426497, 472.792317)"><path style="stroke:none" d="M 6.234375 -10.640625 C 6.234375 -8.785156 6.457031 -7.28125 6.90625 -6.125 C 7.363281 -4.96875 8.082031 -4.109375 9.0625 -3.546875 C 10.039062 -2.984375 11.328125 -2.703125 12.921875 -2.703125 C 14.535156 -2.703125 15.828125 -2.984375 16.796875 -3.546875 C 17.773438 -4.109375 18.488281 -4.96875 18.9375 -6.125 C 19.382812 -7.28125 19.609375 -8.785156 19.609375 -10.640625 L 19.609375 -26.484375 L 23.125 -26.484375 L 23.125 -10.9375 C 23.125 -8.238281 22.757812 -6.050781 22.03125 -4.375 C 21.300781 -2.707031 20.191406 -1.484375 18.703125 -0.703125 C 17.222656 0.0664062 15.316406 0.453125 12.984375 0.453125 C 10.578125 0.453125 8.617188 0.0664062 7.109375 -0.703125 C 5.609375 -1.484375 4.5 -2.707031 3.78125 -4.375 C 3.0625 -6.050781 2.703125 -8.238281 2.703125 -10.9375 L 2.703125 -26.484375 L 6.234375 -26.484375 Z M 6.234375 -10.640625 "/></g></g><g style="fill:#ec1414;fill-opacity:1;"><g transform="translate(426.258718, 472.792317)"><path style="stroke:none" d="M 14.140625 -8.875 C 14.703125 -7.21875 15.070312 -6.082031 15.25 -5.46875 C 15.414062 -4.894531 15.535156 -4.460938 15.609375 -4.171875 L 15.6875 -4.171875 C 15.757812 -4.390625 15.960938 -5.015625 16.296875 -6.046875 L 17.09375 -8.4375 L 23.265625 -26.484375 L 28.078125 -26.484375 L 28.078125 0 L 24.75 0 L 24.75 -22.171875 L 24.671875 -22.171875 L 17.0625 0 L 13.90625 0 L 6.328125 -22.53125 L 6.21875 -22.53125 L 6.21875 0 L 2.890625 0 L 2.890625 -26.484375 L 8.25 -26.484375 Z M 14.140625 -8.875 "/></g></g><g style="fill:#ec1414;fill-opacity:1;"><g transform="translate(457.221279, 472.792317)"><path style="stroke:none" d="M 19.53125 -23.34375 L 6.390625 -23.34375 L 6.390625 -15.25 L 18.53125 -15.25 L 18.53125 -12.109375 L 6.390625 -12.109375 L 6.390625 -3.140625 L 20.15625 -3.140625 L 20.15625 0 L 2.890625 0 L 2.890625 -26.484375 L 19.53125 -26.484375 Z M 19.53125 -23.34375 "/></g></g><g style="fill:#ec1414;fill-opacity:1;"><g transform="translate(479.314166, 472.792317)"><path style="stroke:none" d="M 24.046875 -13.390625 C 24.046875 -10.523438 23.578125 -8.09375 22.640625 -6.09375 C 21.710938 -4.09375 20.367188 -2.578125 18.609375 -1.546875 C 16.847656 -0.515625 14.734375 0 12.265625 0 L 2.890625 0 L 2.890625 -26.484375 L 12.578125 -26.484375 C 14.972656 -26.484375 17.023438 -25.984375 18.734375 -24.984375 C 20.441406 -23.984375 21.753906 -22.503906 22.671875 -20.546875 C 23.585938 -18.585938 24.046875 -16.203125 24.046875 -13.390625 Z M 20.421875 -13.453125 C 20.421875 -16.878906 19.71875 -19.382812 18.3125 -20.96875 C 16.90625 -22.550781 14.84375 -23.34375 12.125 -23.34375 L 6.390625 -23.34375 L 6.390625 -3.140625 L 12 -3.140625 C 14.84375 -3.140625 16.957031 -3.972656 18.34375 -5.640625 C 19.726562 -7.304688 20.421875 -9.910156 20.421875 -13.453125 Z M 20.421875 -13.453125 "/></g></g><g style="fill:#ec1414;fill-opacity:1;"><g transform="translate(505.056093, 472.792317)"><path style="stroke:none" d="M 24.671875 0 L 20.78125 0 L 17.671875 -8.0625 L 6.625 -8.0625 L 3.671875 0 L 0 0 L 10.140625 -26.484375 L 13.90625 -26.484375 Z M 10.375 -18.3125 L 7.625 -10.84375 L 16.609375 -10.84375 L 13.71875 -18.359375 C 13.414062 -19.148438 13.132812 -19.945312 12.875 -20.75 C 12.625 -21.5625 12.34375 -22.550781 12.03125 -23.71875 L 11.953125 -23.71875 C 11.609375 -22.070312 11.082031 -20.269531 10.375 -18.3125 Z M 10.375 -18.3125 "/></g></g><g style="fill:#ec1414;fill-opacity:1;"><g transform="translate(529.732163, 472.792317)"><path style="stroke:none" d="M 19.796875 -5.8125 L 19.875 -5.8125 L 19.875 -26.484375 L 23.203125 -26.484375 L 23.203125 0 L 19.609375 0 L 6.28125 -20.6875 L 6.21875 -20.6875 L 6.21875 0 L 2.890625 0 L 2.890625 -26.484375 L 6.5 -26.484375 Z M 19.796875 -5.8125 "/></g></g><g style="fill:#ec1414;fill-opacity:1;"><g transform="translate(555.81732, 472.792317)"><path style="stroke:none" d="M 13.953125 -23.9375 C 12.140625 -23.9375 10.585938 -23.492188 9.296875 -22.609375 C 8.003906 -21.734375 7.019531 -20.492188 6.34375 -18.890625 C 5.664062 -17.296875 5.328125 -15.4375 5.328125 -13.3125 C 5.328125 -11.0625 5.679688 -9.128906 6.390625 -7.515625 C 7.109375 -5.910156 8.148438 -4.679688 9.515625 -3.828125 C 10.890625 -2.972656 12.550781 -2.546875 14.5 -2.546875 C 15.757812 -2.546875 17.050781 -2.773438 18.375 -3.234375 C 19.707031 -3.691406 20.796875 -4.253906 21.640625 -4.921875 L 21.640625 -10.359375 L 14.296875 -10.359375 L 14.296875 -13.515625 L 25.046875 -13.515625 L 25.046875 -3.421875 C 23.660156 -2.210938 22.039062 -1.265625 20.1875 -0.578125 C 18.34375 0.109375 16.460938 0.453125 14.546875 0.453125 C 11.847656 0.453125 9.535156 -0.0859375 7.609375 -1.171875 C 5.679688 -2.265625 4.210938 -3.84375 3.203125 -5.90625 C 2.203125 -7.976562 1.703125 -10.457031 1.703125 -13.34375 C 1.703125 -16.0625 2.210938 -18.441406 3.234375 -20.484375 C 4.265625 -22.523438 5.71875 -24.109375 7.59375 -25.234375 C 9.46875 -26.367188 11.601562 -26.9375 14 -26.9375 C 16.769531 -26.9375 19.0625 -26.273438 20.875 -24.953125 C 22.6875 -23.628906 23.941406 -21.710938 24.640625 -19.203125 L 21.203125 -18.390625 C 20.703125 -20.203125 19.828125 -21.578125 18.578125 -22.515625 C 17.335938 -23.460938 15.796875 -23.9375 13.953125 -23.9375 Z M 13.953125 -23.9375 "/></g></g><g style="fill:#ec1414;fill-opacity:1;"><g transform="translate(285.406074, 586.665383)"><path style="stroke:none" d="M 5.765625 -11.328125 C 6.546875 -11.328125 7.210938 -11.1875 7.765625 -10.90625 C 8.328125 -10.625 8.753906 -10.222656 9.046875 -9.703125 C 9.335938 -9.179688 9.484375 -8.570312 9.484375 -7.875 C 9.484375 -7.175781 9.335938 -6.566406 9.046875 -6.046875 C 8.753906 -5.535156 8.328125 -5.132812 7.765625 -4.84375 C 7.210938 -4.5625 6.546875 -4.421875 5.765625 -4.421875 L 3.046875 -4.421875 L 3.046875 0 L 1.71875 0 L 1.71875 -11.328125 Z M 5.71875 -5.5625 C 7.289062 -5.5625 8.078125 -6.332031 8.078125 -7.875 C 8.078125 -9.414062 7.289062 -10.1875 5.71875 -10.1875 L 3.046875 -10.1875 L 3.046875 -5.5625 Z M 5.71875 -5.5625 "/></g><g transform="translate(295.730036, 586.665383)"><path style="stroke:none" d="M 8.828125 -11.328125 L 8.828125 -10.1875 L 5.28125 -10.1875 L 5.28125 0 L 3.96875 0 L 3.96875 -10.1875 L 0.421875 -10.1875 L 0.421875 -11.328125 Z M 8.828125 -11.328125 "/></g></g><g style="fill:#ec1414;fill-opacity:1;"><g transform="translate(303.552394, 586.665383)"><path style="stroke:none" d="M 2.078125 0.078125 C 1.785156 0.078125 1.550781 -0.00390625 1.375 -0.171875 C 1.207031 -0.335938 1.125 -0.554688 1.125 -0.828125 C 1.125 -1.097656 1.207031 -1.316406 1.375 -1.484375 C 1.550781 -1.660156 1.785156 -1.75 2.078125 -1.75 C 2.378906 -1.75 2.613281 -1.664062 2.78125 -1.5 C 2.957031 -1.332031 3.046875 -1.113281 3.046875 -0.84375 C 3.046875 -0.570312 2.957031 -0.347656 2.78125 -0.171875 C 2.613281 -0.00390625 2.378906 0.078125 2.078125 0.078125 Z M 2.078125 0.078125 "/></g><g transform="translate(307.726899, 586.665383)"><path style="stroke:none" d=""/></g><g transform="translate(311.614843, 586.665383)"><path style="stroke:none" d="M 10.1875 0 L 8.765625 0 L 7.71875 -3.109375 L 2.890625 -3.109375 L 1.84375 0 L 0.453125 0 L 4.40625 -11.328125 L 6.234375 -11.328125 Z M 5.21875 -9.953125 L 3.265625 -4.21875 L 7.34375 -4.21875 L 5.40625 -9.953125 Z M 5.21875 -9.953125 "/></g></g><g style="fill:#ec1414;fill-opacity:1;"><g transform="translate(322.000765, 586.665383)"><path style="stroke:none" d="M 5.953125 0.15625 C 5.003906 0.15625 4.164062 -0.0546875 3.4375 -0.484375 C 2.71875 -0.921875 2.148438 -1.570312 1.734375 -2.4375 C 1.328125 -3.3125 1.125 -4.382812 1.125 -5.65625 C 1.125 -6.925781 1.34375 -8 1.78125 -8.875 C 2.21875 -9.75 2.820312 -10.398438 3.59375 -10.828125 C 4.375 -11.265625 5.269531 -11.484375 6.28125 -11.484375 C 7.363281 -11.484375 8.253906 -11.285156 8.953125 -10.890625 C 9.648438 -10.503906 10.144531 -9.925781 10.4375 -9.15625 L 9.5625 -8.640625 L 9.375 -8.640625 C 9.070312 -9.234375 8.671875 -9.65625 8.171875 -9.90625 C 7.671875 -10.164062 7.039062 -10.296875 6.28125 -10.296875 C 3.800781 -10.296875 2.5625 -8.75 2.5625 -5.65625 C 2.5625 -4.050781 2.867188 -2.878906 3.484375 -2.140625 C 4.109375 -1.398438 4.988281 -1.03125 6.125 -1.03125 C 7.15625 -1.03125 7.925781 -1.265625 8.4375 -1.734375 C 8.945312 -2.210938 9.203125 -2.957031 9.203125 -3.96875 L 9.203125 -4.96875 L 5.984375 -4.96875 L 5.984375 -6.03125 L 10.5 -6.03125 L 10.5 0 L 9.265625 0 L 9.265625 -1.515625 L 9.109375 -1.5625 C 8.804688 -0.976562 8.382812 -0.546875 7.84375 -0.265625 C 7.3125 0.015625 6.679688 0.15625 5.953125 0.15625 Z M 5.953125 0.15625 "/></g><g transform="translate(333.773026, 586.665383)"><path style="stroke:none" d="M 1.71875 0 L 1.71875 -11.328125 L 5.828125 -11.328125 C 6.585938 -11.328125 7.222656 -11.203125 7.734375 -10.953125 C 8.253906 -10.703125 8.640625 -10.347656 8.890625 -9.890625 C 9.148438 -9.429688 9.28125 -8.890625 9.28125 -8.265625 C 9.28125 -7.554688 9.101562 -6.972656 8.75 -6.515625 C 8.40625 -6.066406 7.859375 -5.726562 7.109375 -5.5 L 7.109375 -5.328125 C 7.484375 -5.191406 7.785156 -4.96875 8.015625 -4.65625 C 8.242188 -4.34375 8.457031 -3.878906 8.65625 -3.265625 L 9.703125 0 L 8.328125 0 L 7.203125 -3.46875 C 7.066406 -3.875 6.910156 -4.191406 6.734375 -4.421875 C 6.554688 -4.648438 6.332031 -4.816406 6.0625 -4.921875 C 5.800781 -5.023438 5.460938 -5.078125 5.046875 -5.078125 L 3.046875 -5.078125 L 3.046875 0 Z M 5.796875 -6.203125 C 6.503906 -6.203125 7.03125 -6.363281 7.375 -6.6875 C 7.71875 -7.019531 7.890625 -7.523438 7.890625 -8.203125 C 7.890625 -8.867188 7.71875 -9.363281 7.375 -9.6875 C 7.03125 -10.019531 6.503906 -10.1875 5.796875 -10.1875 L 3.046875 -10.1875 L 3.046875 -6.203125 Z M 5.796875 -6.203125 "/></g><g transform="translate(344.259632, 586.665383)"><path style="stroke:none" d="M 10.1875 0 L 8.765625 0 L 7.71875 -3.109375 L 2.890625 -3.109375 L 1.84375 0 L 0.453125 0 L 4.40625 -11.328125 L 6.234375 -11.328125 Z M 5.21875 -9.953125 L 3.265625 -4.21875 L 7.34375 -4.21875 L 5.40625 -9.953125 Z M 5.21875 -9.953125 "/></g><g transform="translate(354.901136, 586.665383)"><path style="stroke:none" d="M 1.71875 0 L 1.71875 -11.328125 L 6 -11.328125 C 6.695312 -11.328125 7.285156 -11.210938 7.765625 -10.984375 C 8.253906 -10.765625 8.617188 -10.445312 8.859375 -10.03125 C 9.109375 -9.625 9.234375 -9.140625 9.234375 -8.578125 C 9.234375 -8.085938 9.097656 -7.640625 8.828125 -7.234375 C 8.566406 -6.835938 8.191406 -6.53125 7.703125 -6.3125 L 7.703125 -6.15625 C 8.453125 -5.96875 9.019531 -5.628906 9.40625 -5.140625 C 9.800781 -4.648438 10 -4.03125 10 -3.28125 C 10 -2.226562 9.6875 -1.414062 9.0625 -0.84375 C 8.445312 -0.28125 7.535156 0 6.328125 0 Z M 5.9375 -6.5625 C 6.5625 -6.5625 7.046875 -6.722656 7.390625 -7.046875 C 7.742188 -7.378906 7.921875 -7.832031 7.921875 -8.40625 C 7.921875 -9.007812 7.753906 -9.460938 7.421875 -9.765625 C 7.085938 -10.066406 6.59375 -10.21875 5.9375 -10.21875 L 3.046875 -10.21875 L 3.046875 -6.5625 Z M 6.21875 -1.09375 C 7.832031 -1.09375 8.640625 -1.820312 8.640625 -3.28125 C 8.640625 -4.738281 7.832031 -5.46875 6.21875 -5.46875 L 3.046875 -5.46875 L 3.046875 -1.09375 Z M 6.21875 -1.09375 "/></g><g transform="translate(365.798222, 586.665383)"><path style="stroke:none" d="M 5.84375 0.15625 C 4.445312 0.15625 3.394531 -0.191406 2.6875 -0.890625 C 1.976562 -1.597656 1.625 -2.644531 1.625 -4.03125 L 1.625 -11.328125 L 2.9375 -11.328125 L 2.9375 -4.046875 C 2.9375 -3.054688 3.175781 -2.3125 3.65625 -1.8125 C 4.132812 -1.3125 4.863281 -1.0625 5.84375 -1.0625 C 7.769531 -1.0625 8.734375 -2.054688 8.734375 -4.046875 L 8.734375 -11.328125 L 10.0625 -11.328125 L 10.0625 -4.03125 C 10.0625 -2.644531 9.703125 -1.597656 8.984375 -0.890625 C 8.273438 -0.191406 7.226562 0.15625 5.84375 0.15625 Z M 5.84375 0.15625 "/></g><g transform="translate(377.469798, 586.665383)"><path style="stroke:none" d="M 5.375 -11.328125 C 6.519531 -11.328125 7.503906 -11.117188 8.328125 -10.703125 C 9.148438 -10.296875 9.785156 -9.671875 10.234375 -8.828125 C 10.679688 -7.984375 10.90625 -6.925781 10.90625 -5.65625 C 10.90625 -4.382812 10.679688 -3.328125 10.234375 -2.484375 C 9.785156 -1.648438 9.148438 -1.023438 8.328125 -0.609375 C 7.503906 -0.203125 6.519531 0 5.375 0 L 1.71875 0 L 1.71875 -11.328125 Z M 5.25 -1.125 C 6.1875 -1.125 6.960938 -1.269531 7.578125 -1.5625 C 8.203125 -1.863281 8.675781 -2.347656 9 -3.015625 C 9.320312 -3.679688 9.484375 -4.5625 9.484375 -5.65625 C 9.484375 -6.757812 9.320312 -7.644531 9 -8.3125 C 8.675781 -8.976562 8.203125 -9.457031 7.578125 -9.75 C 6.960938 -10.039062 6.1875 -10.1875 5.25 -10.1875 L 3.046875 -10.1875 L 3.046875 -1.125 Z M 5.25 -1.125 "/></g><g transform="translate(389.505386, 586.665383)"><path style="stroke:none" d="M 3.046875 0 L 1.71875 0 L 1.71875 -11.328125 L 3.046875 -11.328125 Z M 3.046875 0 "/></g><g transform="translate(394.268504, 586.665383)"><path style="stroke:none" d=""/></g><g transform="translate(398.156448, 586.665383)"><path style="stroke:none" d="M 1.71875 0 L 1.71875 -11.328125 L 3.046875 -11.328125 L 3.046875 -6.375 L 3.28125 -6.375 L 7.9375 -11.328125 L 9.390625 -11.328125 L 9.390625 -11.125 L 4.484375 -5.84375 L 9.765625 -0.1875 L 9.765625 0 L 8.25 0 L 3.28125 -5.21875 L 3.046875 -5.21875 L 3.046875 0 Z M 1.71875 0 "/></g></g><g style="fill:#ec1414;fill-opacity:1;"><g transform="translate(407.729155, 586.665383)"><path style="stroke:none" d="M 6.203125 0.15625 C 5.222656 0.15625 4.351562 -0.0507812 3.59375 -0.46875 C 2.832031 -0.894531 2.226562 -1.539062 1.78125 -2.40625 C 1.34375 -3.28125 1.125 -4.363281 1.125 -5.65625 C 1.125 -6.957031 1.34375 -8.039062 1.78125 -8.90625 C 2.226562 -9.78125 2.832031 -10.425781 3.59375 -10.84375 C 4.351562 -11.269531 5.222656 -11.484375 6.203125 -11.484375 C 7.191406 -11.484375 8.066406 -11.269531 8.828125 -10.84375 C 9.585938 -10.425781 10.1875 -9.78125 10.625 -8.90625 C 11.070312 -8.039062 11.296875 -6.957031 11.296875 -5.65625 C 11.296875 -4.363281 11.070312 -3.28125 10.625 -2.40625 C 10.1875 -1.539062 9.585938 -0.894531 8.828125 -0.46875 C 8.066406 -0.0507812 7.191406 0.15625 6.203125 0.15625 Z M 6.203125 -1.0625 C 7.378906 -1.0625 8.28125 -1.429688 8.90625 -2.171875 C 9.539062 -2.910156 9.859375 -4.070312 9.859375 -5.65625 C 9.859375 -7.25 9.539062 -8.410156 8.90625 -9.140625 C 8.28125 -9.878906 7.378906 -10.25 6.203125 -10.25 C 3.773438 -10.25 2.5625 -8.71875 2.5625 -5.65625 C 2.5625 -2.59375 3.773438 -1.0625 6.203125 -1.0625 Z M 6.203125 -1.0625 "/></g><g transform="translate(420.151988, 586.665383)"><path style="stroke:none" d="M 2.9375 0 L 1.71875 0 L 1.71875 -11.328125 L 3.6875 -11.328125 L 7.109375 -1.734375 L 7.28125 -1.734375 L 10.703125 -11.328125 L 12.609375 -11.328125 L 12.609375 0 L 11.359375 0 L 11.359375 -9.234375 L 11.15625 -9.265625 L 7.8125 0 L 6.484375 0 L 3.140625 -9.265625 L 2.9375 -9.234375 Z M 2.9375 0 "/></g><g transform="translate(434.487813, 586.665383)"><path style="stroke:none" d="M 5.84375 0.15625 C 4.445312 0.15625 3.394531 -0.191406 2.6875 -0.890625 C 1.976562 -1.597656 1.625 -2.644531 1.625 -4.03125 L 1.625 -11.328125 L 2.9375 -11.328125 L 2.9375 -4.046875 C 2.9375 -3.054688 3.175781 -2.3125 3.65625 -1.8125 C 4.132812 -1.3125 4.863281 -1.0625 5.84375 -1.0625 C 7.769531 -1.0625 8.734375 -2.054688 8.734375 -4.046875 L 8.734375 -11.328125 L 10.0625 -11.328125 L 10.0625 -4.03125 C 10.0625 -2.644531 9.703125 -1.597656 8.984375 -0.890625 C 8.273438 -0.191406 7.226562 0.15625 5.84375 0.15625 Z M 5.84375 0.15625 "/></g><g transform="translate(446.15939, 586.665383)"><path style="stroke:none" d="M 3.015625 0 L 1.71875 0 L 1.71875 -11.328125 L 3.34375 -11.328125 L 8.859375 -2.671875 L 9.0625 -2.703125 L 9.0625 -11.328125 L 10.359375 -11.328125 L 10.359375 0 L 8.953125 0 L 3.203125 -9.25 L 3.015625 -9.21875 Z M 3.015625 0 "/></g><g transform="translate(458.233702, 586.665383)"><path style="stroke:none" d="M 3.046875 0 L 1.71875 0 L 1.71875 -11.328125 L 3.046875 -11.328125 Z M 3.046875 0 "/></g><g transform="translate(462.996821, 586.665383)"><path style="stroke:none" d="M 1.71875 0 L 1.71875 -11.328125 L 3.046875 -11.328125 L 3.046875 -6.375 L 3.28125 -6.375 L 7.9375 -11.328125 L 9.390625 -11.328125 L 9.390625 -11.125 L 4.484375 -5.84375 L 9.765625 -0.1875 L 9.765625 0 L 8.25 0 L 3.28125 -5.21875 L 3.046875 -5.21875 L 3.046875 0 Z M 1.71875 0 "/></g><g transform="translate(472.987752, 586.665383)"><path style="stroke:none" d="M 10.1875 0 L 8.765625 0 L 7.71875 -3.109375 L 2.890625 -3.109375 L 1.84375 0 L 0.453125 0 L 4.40625 -11.328125 L 6.234375 -11.328125 Z M 5.21875 -9.953125 L 3.265625 -4.21875 L 7.34375 -4.21875 L 5.40625 -9.953125 Z M 5.21875 -9.953125 "/></g></g><g clip-rule="nonzero" clip-path="url(#f85a04713e)"><path style=" stroke:none;fill-rule:nonzero;fill:#ec1414;fill-opacity:1;" d="M 565.621094 313.71875 L 603.550781 313.71875 L 603.550781 437.429688 L 565.621094 437.429688 Z M 565.621094 313.71875 "/></g></g></svg>